<svg width="25" height="25" viewBox="0 0 55 55" fill="none" xmlns="http://www.w3.org/2000/svg">
<path d="M20.6095 0.770508H54.3356V14.261H20.6095V0.770508Z" fill="url(#paint0_linear_1_15)"/>
<path d="M20.6095 21.0062H54.3356V34.4966H20.6095V21.0062Z" fill="url(#paint1_linear_1_15)"/>
<path d="M20.6095 41.2419H54.3356V54.7323H20.6095V41.2419Z" fill="url(#paint2_linear_1_15)"/>
<path d="M10.4917 4.14312V10.8883H3.74645V4.14312H10.4917ZM13.8643 0.770508H0.37384V14.261H13.8643V0.770508Z" fill="url(#paint3_linear_1_15)"/>
<path d="M10.4917 44.6145V51.3597H3.74645V44.6145H10.4917ZM13.8643 41.2419H0.37384V54.7323H13.8643V41.2419Z" fill="url(#paint4_linear_1_15)"/>
<path d="M18.2487 20.6689L16.2251 17.9709L13.1898 21.0062H0.37384V34.4967H13.8643V25.0533L18.2487 20.6689ZM9.47989 24.3788L7.11906 26.7396L4.42098 24.3788H9.47989ZM3.74645 28.426L6.7818 31.124H3.74645V28.426ZM10.4917 31.124H7.45633L10.4917 28.0887V31.124Z" fill="url(#paint5_linear_1_15)"/>
<defs>
<linearGradient id="paint0_linear_1_15" x1="23.8133" y1="-0.172119" x2="32.1203" y2="29.8633" gradientUnits="userSpaceOnUse">
<stop stop-color="#6DB67D"/>
<stop offset="1" stop-color="#BB5E4A"/>
</linearGradient>
<linearGradient id="paint1_linear_1_15" x1="23.8133" y1="20.0636" x2="32.1203" y2="50.0989" gradientUnits="userSpaceOnUse">
<stop stop-color="#6DB67D"/>
<stop offset="1" stop-color="#BB5E4A"/>
</linearGradient>
<linearGradient id="paint2_linear_1_15" x1="23.8133" y1="40.2992" x2="32.1203" y2="70.3346" gradientUnits="userSpaceOnUse">
<stop stop-color="#6DB67D"/>
<stop offset="1" stop-color="#BB5E4A"/>
</linearGradient>
<linearGradient id="paint3_linear_1_15" x1="1.65538" y1="-0.172119" x2="16.7804" y2="21.7029" gradientUnits="userSpaceOnUse">
<stop stop-color="#6DB67D"/>
<stop offset="1" stop-color="#BB5E4A"/>
</linearGradient>
<linearGradient id="paint4_linear_1_15" x1="1.65538" y1="40.2992" x2="16.7804" y2="62.1742" gradientUnits="userSpaceOnUse">
<stop stop-color="#6DB67D"/>
<stop offset="1" stop-color="#BB5E4A"/>
</linearGradient>
<linearGradient id="paint5_linear_1_15" x1="2.07188" y1="16.8161" x2="20.0461" y2="44.934" gradientUnits="userSpaceOnUse">
<stop stop-color="#6DB67D"/>
<stop offset="1" stop-color="#BB5E4A"/>
</linearGradient>
</defs>
</svg>
